# xmcd CD database file
#
# Track frame offsets:
#	150
#	57302
#	114933
#	171928
#	229297
#
# Disc length: 3818 seconds
#
# Revision: 0
# Processed by: cddbd v1.4PL0 Copyright (c) Steve Scherf et al.
# Submitted via: CDex 1.50
#
DISCID=3c0ee805
DTITLE=Tantric Massage - Spiritual Vitamins
DYEAR=2001
DGENRE=Rhythmic Soul
TTITLE0=Garuda
TTITLE1=Nagarkshas
TTITLE2=Manjushri
TTITLE3=Vajrakila
TTITLE4=Siddhis
EXTD=YEAR: 2001
EXTT0=
EXTT1=
EXTT2=
EXTT3=
EXTT4=
PLAYORDER=
